<?xml version="1.0" encoding="utf-8"?>
<!-- Generator: Adobe Illustrator 19.2.1, SVG Export Plug-In . SVG Version: 6.00 Build 0)  -->
<svg version="1.1" id="Capa_1" xmlns="http://www.w3.org/2000/svg" xmlns:xlink="http://www.w3.org/1999/xlink" x="0px" y="0px"
	 viewBox="0 0 624 414.2" style="enable-background:new 0 0 624 414.2;" xml:space="preserve">
<style type="text/css">
	.st0{fill:none;}
	.st1{fill:#FD675E;}
	.st2{fill:none;stroke:#804988;stroke-width:0.4351;stroke-miterlimit:10;}
	.st3{fill:#804988;}
	.st4{fill:none;stroke:#804988;stroke-width:0.1865;stroke-miterlimit:10;}
</style>
<g>
	<g>
		<rect class="st0" width="624" height="417"/>
	</g>
</g>
<path class="st1" d="M371.4,306.1c-0.3,0.4-0.6,0.7-0.9,1.1c-0.4-1.7-2-3-3.9-3c-1.9,0-3.4,1.3-3.9,3c-0.3-0.4-0.6-0.7-0.9-1.1
	c0.8-1.8,2.6-3.1,4.8-3.1S370.6,304.2,371.4,306.1z M344.6,297.4c4-8.1,12.3-13.7,22-13.7s18,5.6,22,13.7c0.4,0,0.9,0,1.3-0.1
	c-4.1-8.8-13-14.9-23.3-14.9s-19.2,6.1-23.3,14.9C343.7,297.4,344.2,297.4,344.6,297.4z M366.6,297.8c-3.6,0-6.8,1.9-8.6,4.7
	c0.3,0.2,0.7,0.5,1,0.8c1.6-2.5,4.5-4.2,7.7-4.2s6,1.7,7.7,4.2c0.3-0.3,0.6-0.5,1-0.8C373.4,299.7,370.2,297.8,366.6,297.8z
	 M366.6,292.7c-5.5,0-10.3,2.9-13,7.1c0.4,0.2,0.7,0.4,1.1,0.6c2.5-3.9,6.9-6.5,11.9-6.5c5,0,9.4,2.6,11.9,6.5
	c0.4-0.2,0.7-0.4,1.1-0.6C376.8,295.6,372.1,292.7,366.6,292.7z M366.6,287.6c-7.7,0-14.4,4.2-17.9,10.5c0.4,0.1,0.8,0.2,1.2,0.3
	c3.4-5.7,9.6-9.6,16.7-9.6s13.3,3.9,16.7,9.6c0.4-0.1,0.8-0.2,1.2-0.3C381,291.8,374.3,287.6,366.6,287.6z M415.3,303
	c-2.1,0-4,1.3-4.8,3.1c0.3,0.4,0.6,0.7,0.9,1.1c0.4-1.7,2-3,3.9-3c1.9,0,3.4,1.3,3.9,3c0.3-0.4,0.6-0.7,0.9-1.1
	C419.3,304.2,417.5,303,415.3,303z M393.4,297.4c4-8.1,12.3-13.7,22-13.7c9.6,0,18,5.6,22,13.7c0.4,0,0.9,0,1.3-0.1
	c-4.1-8.8-13-14.9-23.3-14.9s-19.2,6.1-23.3,14.9C392.5,297.4,392.9,297.4,393.4,297.4z M415.3,297.8c-3.6,0-6.8,1.9-8.6,4.7
	c0.3,0.2,0.7,0.5,1,0.8c1.6-2.5,4.5-4.2,7.7-4.2c3.2,0,6,1.7,7.7,4.2c0.3-0.3,0.6-0.5,1-0.8C422.1,299.7,418.9,297.8,415.3,297.8z
	 M415.3,292.7c-5.5,0-10.3,2.9-13,7.1c0.4,0.2,0.7,0.4,1.1,0.6c2.5-3.9,6.9-6.5,11.9-6.5c5,0,9.4,2.6,11.9,6.5
	c0.4-0.2,0.7-0.4,1.1-0.6C425.6,295.6,420.8,292.7,415.3,292.7z M415.3,287.6c-7.7,0-14.4,4.2-17.9,10.5c0.4,0.1,0.8,0.2,1.2,0.3
	c3.4-5.7,9.6-9.6,16.7-9.6c7.1,0,13.3,3.9,16.7,9.6c0.4-0.1,0.8-0.2,1.2-0.3C429.7,291.8,423,287.6,415.3,287.6z M347,322.8
	c-0.3,0.4-0.6,0.7-0.9,1.1c-0.4-1.7-2-3-3.9-3c-1.9,0-3.4,1.3-3.9,3c-0.3-0.4-0.6-0.7-0.9-1.1c0.8-1.8,2.6-3.1,4.8-3.1
	C344.4,319.6,346.2,320.9,347,322.8z M320.2,314.1c4-8.1,12.3-13.7,22-13.7c9.6,0,18,5.6,22,13.7c0.4,0,0.9,0,1.3-0.1
	c-4.1-8.8-13-14.9-23.3-14.9c-10.3,0-19.2,6.1-23.3,14.9C319.4,314.1,319.8,314.1,320.2,314.1z M342.2,314.5c-3.6,0-6.8,1.9-8.6,4.7
	c0.3,0.2,0.7,0.5,1,0.8c1.6-2.5,4.5-4.2,7.7-4.2c3.2,0,6,1.7,7.7,4.2c0.3-0.3,0.6-0.5,1-0.8C349,316.4,345.8,314.5,342.2,314.5z
	 M342.2,309.4c-5.5,0-10.3,2.9-13,7.1c0.4,0.2,0.7,0.4,1.1,0.6c2.5-3.9,6.9-6.5,11.9-6.5c5,0,9.4,2.6,11.9,6.5
	c0.4-0.2,0.7-0.4,1.1-0.6C352.5,312.2,347.7,309.4,342.2,309.4z M342.2,304.3c-7.7,0-14.4,4.2-17.9,10.5c0.4,0.1,0.8,0.2,1.2,0.3
	c3.4-5.7,9.6-9.6,16.7-9.6c7.1,0,13.3,3.9,16.7,9.6c0.4-0.1,0.8-0.2,1.2-0.3C356.6,308.5,349.9,304.3,342.2,304.3z M391,319.6
	c-2.1,0-4,1.3-4.8,3.1c0.3,0.4,0.6,0.7,0.9,1.1c0.4-1.7,2-3,3.9-3c1.9,0,3.4,1.3,3.9,3c0.3-0.4,0.6-0.7,0.9-1.1
	C394.9,320.9,393.1,319.6,391,319.6z M369,314.1c4-8.1,12.3-13.7,22-13.7c9.6,0,18,5.6,22,13.7c0.4,0,0.9,0,1.3-0.1
	c-4.1-8.8-13-14.9-23.3-14.9c-10.3,0-19.2,6.1-23.3,14.9C368.1,314.1,368.6,314.1,369,314.1z M391,314.5c-3.6,0-6.8,1.9-8.6,4.7
	c0.3,0.2,0.7,0.5,1,0.8c1.6-2.5,4.5-4.2,7.7-4.2c3.2,0,6,1.7,7.7,4.2c0.3-0.3,0.6-0.5,1-0.8C397.8,316.4,394.6,314.5,391,314.5z
	 M391,309.4c-5.5,0-10.3,2.9-13,7.1c0.4,0.2,0.7,0.4,1.1,0.6c2.5-3.9,6.9-6.5,11.9-6.5c5,0,9.4,2.6,11.9,6.5
	c0.4-0.2,0.7-0.4,1.1-0.6C401.2,312.2,396.4,309.4,391,309.4z M391,304.3c-7.7,0-14.4,4.2-17.9,10.5c0.4,0.1,0.8,0.2,1.2,0.3
	c3.4-5.7,9.6-9.6,16.7-9.6c7.1,0,13.3,3.9,16.7,9.6c0.4-0.1,0.8-0.2,1.2-0.3C405.3,308.5,398.6,304.3,391,304.3z"/>
<path class="st1" d="M506.5,128.4c-0.3,0.3-0.5,0.6-0.7,0.9c-0.4-1.4-1.6-2.4-3.1-2.4s-2.7,1-3.1,2.4c-0.2-0.3-0.5-0.6-0.7-0.9
	c0.6-1.5,2.1-2.5,3.8-2.5C504.4,125.9,505.8,127,506.5,128.4z M485.1,121.5c3.2-6.5,9.8-11,17.5-11s14.4,4.5,17.5,11
	c0.4,0,0.7,0,1.1,0c-3.3-7-10.4-11.9-18.6-11.9s-15.3,4.9-18.6,11.9C484.4,121.5,484.8,121.5,485.1,121.5z M502.6,121.8
	c-2.9,0-5.4,1.5-6.9,3.7c0.3,0.2,0.5,0.4,0.8,0.6c1.3-2,3.6-3.4,6.1-3.4c2.6,0,4.8,1.3,6.1,3.4c0.3-0.2,0.5-0.4,0.8-0.6
	C508.1,123.3,505.5,121.8,502.6,121.8z M502.6,117.8c-4.4,0-8.2,2.3-10.4,5.7c0.3,0.1,0.6,0.3,0.9,0.4c2-3.1,5.5-5.2,9.5-5.2
	s7.5,2.1,9.5,5.2c0.3-0.2,0.6-0.3,0.9-0.4C510.8,120,507,117.8,502.6,117.8z M502.6,113.7c-6.1,0-11.5,3.4-14.3,8.4
	c0.3,0.1,0.7,0.2,1,0.3c2.7-4.6,7.6-7.7,13.3-7.7s10.6,3.1,13.3,7.7c0.3-0.1,0.6-0.2,1-0.3C514.1,117.1,508.8,113.7,502.6,113.7z
	 M541.6,125.9c-1.7,0-3.2,1-3.8,2.5c0.3,0.3,0.5,0.6,0.7,0.9c0.4-1.4,1.6-2.4,3.1-2.4c1.5,0,2.7,1,3.1,2.4c0.2-0.3,0.5-0.6,0.7-0.9
	C544.7,127,543.3,125.9,541.6,125.9z M524,121.5c3.2-6.5,9.8-11,17.5-11c7.7,0,14.4,4.5,17.5,11c0.4,0,0.7,0,1.1,0
	c-3.3-7-10.4-11.9-18.6-11.9c-8.2,0-15.3,4.9-18.6,11.9C523.3,121.5,523.7,121.5,524,121.5z M541.6,121.8c-2.9,0-5.4,1.5-6.9,3.7
	c0.3,0.2,0.5,0.4,0.8,0.6c1.3-2,3.6-3.4,6.1-3.4c2.6,0,4.8,1.3,6.1,3.4c0.3-0.2,0.5-0.4,0.8-0.6C547,123.3,544.5,121.8,541.6,121.8z
	 M541.6,117.8c-4.4,0-8.2,2.3-10.4,5.7c0.3,0.1,0.6,0.3,0.9,0.4c2-3.1,5.5-5.2,9.5-5.2c4,0,7.5,2.1,9.5,5.2c0.3-0.2,0.6-0.3,0.9-0.4
	C549.8,120,545.9,117.8,541.6,117.8z M541.6,113.7c-6.1,0-11.5,3.4-14.3,8.4c0.3,0.1,0.7,0.2,1,0.3c2.7-4.6,7.6-7.7,13.3-7.7
	c5.7,0,10.6,3.1,13.3,7.7c0.3-0.1,0.6-0.2,1-0.3C553.1,117.1,547.7,113.7,541.6,113.7z M487,141.7c-0.3,0.3-0.5,0.6-0.7,0.9
	c-0.4-1.4-1.6-2.4-3.1-2.4c-1.5,0-2.7,1-3.1,2.4c-0.2-0.3-0.5-0.6-0.7-0.9c0.6-1.5,2.1-2.5,3.8-2.5
	C484.9,139.2,486.4,140.3,487,141.7z M465.6,134.8c3.2-6.5,9.8-11,17.5-11c7.7,0,14.4,4.5,17.5,11c0.4,0,0.7,0,1.1,0
	c-3.3-7-10.4-11.9-18.6-11.9c-8.2,0-15.3,4.9-18.6,11.9C464.9,134.8,465.3,134.8,465.6,134.8z M483.2,135.2c-2.9,0-5.4,1.5-6.9,3.7
	c0.3,0.2,0.5,0.4,0.8,0.6c1.3-2,3.6-3.4,6.1-3.4c2.6,0,4.8,1.3,6.1,3.4c0.3-0.2,0.5-0.4,0.8-0.6
	C488.6,136.6,486.1,135.2,483.2,135.2z M483.2,131.1c-4.4,0-8.2,2.3-10.4,5.7c0.3,0.1,0.6,0.3,0.9,0.4c2-3.1,5.5-5.2,9.5-5.2
	c4,0,7.5,2.1,9.5,5.2c0.3-0.2,0.6-0.3,0.9-0.4C491.4,133.4,487.5,131.1,483.2,131.1z M483.2,127c-6.1,0-11.5,3.4-14.3,8.4
	c0.3,0.1,0.7,0.2,1,0.3c2.7-4.6,7.6-7.7,13.3-7.7c5.7,0,10.6,3.1,13.3,7.7c0.3-0.1,0.6-0.2,1-0.3C494.7,130.4,489.3,127,483.2,127z
	 M522.1,139.2c-1.7,0-3.2,1-3.8,2.5c0.3,0.3,0.5,0.6,0.7,0.9c0.4-1.4,1.6-2.4,3.1-2.4c1.5,0,2.7,1,3.1,2.4c0.2-0.3,0.5-0.6,0.7-0.9
	C525.3,140.3,523.8,139.2,522.1,139.2z M504.6,134.8c3.2-6.5,9.8-11,17.5-11c7.7,0,14.4,4.5,17.5,11c0.4,0,0.7,0,1.1,0
	c-3.3-7-10.4-11.9-18.6-11.9c-8.2,0-15.3,4.9-18.6,11.9C503.9,134.8,504.2,134.8,504.6,134.8z M522.1,135.2c-2.9,0-5.4,1.5-6.9,3.7
	c0.3,0.2,0.5,0.4,0.8,0.6c1.3-2,3.6-3.4,6.1-3.4c2.6,0,4.8,1.3,6.1,3.4c0.3-0.2,0.5-0.4,0.8-0.6C527.5,136.6,525,135.2,522.1,135.2z
	 M522.1,131.1c-4.4,0-8.2,2.3-10.4,5.7c0.3,0.1,0.6,0.3,0.9,0.4c2-3.1,5.5-5.2,9.5-5.2c4,0,7.5,2.1,9.5,5.2c0.3-0.2,0.6-0.3,0.9-0.4
	C530.3,133.4,526.5,131.1,522.1,131.1z M522.1,127c-6.1,0-11.5,3.4-14.3,8.4c0.3,0.1,0.7,0.2,1,0.3c2.7-4.6,7.6-7.7,13.3-7.7
	c5.7,0,10.6,3.1,13.3,7.7c0.3-0.1,0.6-0.2,1-0.3C533.6,130.4,528.2,127,522.1,127z"/>
<g>
	<path class="st1" d="M597.5,15.8v3.6h-4.9v5.8l-2.6,0v-5.9h-8.1v8h5.9v2.6h-8.6V19.4h-22v2.2h19.8v10.7h10.8V35h-5.9v8h8.1v-5.8
		h2.6v10.2h10.8v18.9h2.2V45.2h-10.8v-8h2.7v2.5V43h8.1v-8h-5.9v-2.7h5.9v-4.8h3.1v43.9h2.2V25.3h-4v-0.1h-1.3v-3.6h5.4v-8h-8.1v5.8
		h-3.1v-5.6h0v-0.3h-47.1v2.2H597.5z M605.5,19.4H605v-3.6h3.7v3.6H605.5z M603.3,25.2h-3.7v-3.6h3.1h0.5V25.2z M597.5,30.1h-2.7
		v-2.7l2.7,0V30.1z M599.7,30.1v-2.7h3.7v2.7H599.7z M599.7,37.2h3.7v3.6h-3.7v-1.2V37.2z M594.8,35v-2.7h2.7V35H594.8z M587.8,37.2
		v3.6h-3.7v-3.6H587.8z M590,32.3h2.6V35H590V32.3z M587.8,25.3h-3.7v-3.6h3.7V25.3z M592.6,27.4v2.7H590v-2.6L592.6,27.4z
		 M597.5,21.6v3.6l-2.7,0v-3.6H597.5z"/>
	<path class="st1" d="M74.5,16.7v-2.2H27.4v0.3h0v5.6h-3.1v-5.8h-8.1v8h5.4v3.6h-1.3v0.1h-4v46.1h2.2V28.4h3.1v4.8h5.9v2.7h-5.9v8
		h8.1v-3.4v-2.5h2.7v8H21.5v21.1h2.2V48.3h10.8V38.1h2.6v5.8h8.1v-8h-5.9v-2.7h10.8V22.5h19.8v-2.2h-22V31h-8.6v-2.6h5.9v-8h-8.1
		v5.9l-2.6,0v-5.8h-4.9v-3.6H74.5z M18.4,20.3v-3.6H22v3.6h-0.5H18.4z M23.7,22.5h0.5h3.1v3.6h-3.7V22.5z M29.6,28.3l2.7,0V31h-2.7
		V28.3z M23.7,31v-2.7h3.7V31H23.7z M27.4,40.6v1.2h-3.7v-3.6h3.7V40.6z M29.6,35.9v-2.7h2.7v2.7H29.6z M43,38.1v3.6h-3.7v-3.6H43z
		 M37.1,35.9h-2.6v-2.7h2.6V35.9z M39.3,22.5H43v3.6h-3.7V22.5z M37.1,28.4V31h-2.6v-2.7L37.1,28.4z M32.3,22.5v3.6l-2.7,0v-3.6
		H32.3z"/>
	<path class="st1" d="M552.5,397.7v2.2h47.1v-0.3h0V394h3.1v5.8h8.1v-8h-5.4v-3.6h1.3v-0.1h4v-46.1h-2.2V386h-3.1v-4.8h-5.9v-2.7
		h5.9v-8h-8.1v3.4v2.5h-2.7v-8h10.8v-21.1h-2.2V366h-10.8v10.2H590v-5.8h-8.1v8h5.9v2.7h-10.8v10.7h-19.8v2.2h22v-10.7h8.6v2.6h-5.9
		v8h8.1v-5.9l2.6,0v5.8h4.9v3.6H552.5z M608.7,394v3.6H605V394h0.5H608.7z M603.3,391.8h-0.5h-3.1v-3.6h3.7V391.8z M597.5,386
		l-2.7,0v-2.7h2.7V386z M603.3,383.3v2.7h-3.7v-2.7H603.3z M599.7,373.8v-1.2h3.7v3.6h-3.7V373.8z M597.5,378.4v2.7h-2.7v-2.7H597.5
		z M584.1,376.2v-3.6h3.7v3.6H584.1z M590,378.4h2.6v2.7H590V378.4z M587.8,391.8h-3.7v-3.6h3.7V391.8z M590,385.9v-2.6h2.6v2.7
		L590,385.9z M594.8,391.8v-3.6l2.7,0v3.6H594.8z"/>
	<path class="st1" d="M29.6,397.7V394h4.9v-5.8l2.6,0v5.9h8.1v-8h-5.9v-2.6h8.6V394h22v-2.2H50.1v-10.7H39.3v-2.7h5.9v-8h-8.1v5.8
		h-2.6V366H23.7v-18.9h-2.2v21.1h10.8v8h-2.7v-2.5v-3.4h-8.1v8h5.9v2.7h-5.9v4.8h-3.1v-43.9h-2.2v46.1h4v0.1h1.3v3.6h-5.4v8h8.1V394
		h3.1v5.6h0v0.3h47.1v-2.2H29.6z M21.5,394H22v3.6h-3.7V394H21.5z M23.7,388.3h3.7v3.6h-3.1h-0.5V388.3z M29.6,383.3h2.7v2.7l-2.7,0
		V383.3z M27.4,383.3v2.7h-3.7v-2.7H27.4z M27.4,376.2h-3.7v-3.6h3.7v1.2V376.2z M32.3,378.4v2.7h-2.7v-2.7H32.3z M39.3,376.2v-3.6
		H43v3.6H39.3z M37.1,381.1h-2.6v-2.7h2.6V381.1z M39.3,388.2H43v3.6h-3.7V388.2z M34.5,386v-2.7h2.6v2.6L34.5,386z M29.6,391.8
		v-3.6l2.7,0v3.6H29.6z"/>
</g>
<g>
	<path class="st1" d="M324.7,476.5c-36,0-65.3-29.3-65.3-65.3c0-36,29.3-65.3,65.3-65.3c36,0,65.3,29.3,65.3,65.3
		C390,447.2,360.7,476.5,324.7,476.5z"/>
	<path class="st2" d="M390.9,403.8c0-0.1,0-0.2,0-0.3c3.9-1.5,5.3-8.2,3.1-15.2c-2.3-7.1-7.5-11.8-11.6-10.5c0-0.1-0.1-0.1-0.1-0.2
		l0,0c3.2-2.9,1.8-9.8-3.2-15.3c-5-5.6-11.7-7.7-14.9-4.9c0,0,0,0-0.1,0.1c-0.1,0-0.1-0.1-0.2-0.1c0,0,0,0,0-0.1
		c1.8-4-2.4-9.6-9.2-12.7c-6.8-3-13.8-2.3-15.6,1.6c-0.1,0-0.2,0-0.2-0.1c0-4.3-6.1-7.8-13.6-7.8c-7.2,0-13.2,3.3-13.6,7.4
		c-2-3.6-8.7-4.3-15.4-1.4c-6.5,2.9-10.6,8.1-9.5,12c-0.2,0.1-0.3,0.2-0.5,0.3c-3.4-2.3-9.6-0.1-14.4,5.2
		c-4.6,5.1-6.3,11.2-4.1,14.5c-0.2,0.3-0.3,0.5-0.5,0.8c-3.9-0.3-8.5,4.1-10.6,10.6c-2.1,6.3-1.2,12.4,1.8,14.6
		c-0.1,0.4-0.1,0.9-0.2,1.3c-3.5,1.6-5.6,7.3-5,13.9c0.6,6.4,3.7,11.4,7.3,12.5c0.2,0.6,0.3,1.1,0.5,1.7c-2.3,3-1.8,8.9,1.4,14.4
		c3.1,5.5,7.9,8.8,11.6,8.5c0.4,0.5,0.9,1,1.3,1.5c-0.7,3.6,2.1,8.7,7.1,12.4c5.1,3.7,10.8,4.8,14,3.1c0.6,0.3,1.2,0.5,1.8,0.8
		c0.8,3.6,5.4,7.1,11.6,8.5c6.3,1.4,12.1,0,14.2-3.1c0.2,0,0.3,0,0.5,0c0.4,0,0.8,0,1.2,0c2.1,3.1,7.9,4.5,14.2,3.2
		c6.5-1.4,11.3-5.2,11.7-8.9c0.4-0.2,0.8-0.4,1.2-0.6c3.1,2.2,9.2,1.2,14.5-2.6c5.6-4,8.5-9.8,6.9-13.4c0.2-0.2,0.4-0.4,0.6-0.7
		c3.8,1.2,9.2-2.3,12.6-8.2c3.6-6.2,3.8-12.8,0.5-15.3c0.1-0.2,0.1-0.4,0.2-0.6c4.1-0.1,7.9-5.6,8.6-12.7
		C397.8,410.8,395.1,404.5,390.9,403.8z"/>
	<path class="st3" d="M390.9,403.8c0-0.1,0-0.2,0-0.3c3.9-1.5,5.3-8.2,3.1-15.2c-2.3-7.1-7.5-11.8-11.6-10.5c0-0.1-0.1-0.1-0.1-0.2
		l0,0c3.2-2.9,1.8-9.8-3.2-15.3c-5-5.6-11.7-7.7-14.9-4.9c0,0,0,0-0.1,0.1c-0.1,0-0.1-0.1-0.2-0.1c0,0,0,0,0-0.1
		c1.8-4-2.4-9.6-9.2-12.7c-6.8-3-13.8-2.3-15.6,1.6c-0.1,0-0.2,0-0.2-0.1c0-4.3-6.1-7.8-13.6-7.8c-7.2,0-13.2,3.3-13.6,7.4
		c-2-3.6-8.7-4.3-15.4-1.4c-6.5,2.9-10.6,8.1-9.5,12c-0.2,0.1-0.3,0.2-0.5,0.3c-3.4-2.3-9.6-0.1-14.4,5.2
		c-4.6,5.1-6.3,11.2-4.1,14.5c-0.2,0.3-0.3,0.5-0.5,0.8c-3.9-0.3-8.5,4.1-10.6,10.6c-2.1,6.3-1.2,12.4,1.8,14.6
		c-0.1,0.4-0.1,0.9-0.2,1.3c-3.5,1.6-5.6,7.3-5,13.9c0.6,6.4,3.7,11.4,7.3,12.5c0.2,0.6,0.3,1.1,0.5,1.7c-2.3,3-1.8,8.9,1.4,14.4
		c3.1,5.5,7.9,8.8,11.6,8.5c0.4,0.5,0.9,1,1.3,1.5c-0.7,3.6,2.1,8.7,7.1,12.4c5.1,3.7,10.8,4.8,14,3.1c0.6,0.3,1.2,0.5,1.8,0.8
		c0.8,3.6,5.4,7.1,11.6,8.5c6.3,1.4,12.1,0,14.2-3.1c0.2,0,0.3,0,0.5,0c0.4,0,0.8,0,1.2,0c2.1,3.1,7.9,4.5,14.2,3.2
		c6.5-1.4,11.3-5.2,11.7-8.9c0.4-0.2,0.8-0.4,1.2-0.6c3.1,2.2,9.2,1.2,14.5-2.6c5.6-4,8.5-9.8,6.9-13.4c0.2-0.2,0.4-0.4,0.6-0.7
		c3.8,1.2,9.2-2.3,12.6-8.2c3.6-6.2,3.8-12.8,0.5-15.3c0.1-0.2,0.1-0.4,0.2-0.6c4.1-0.1,7.9-5.6,8.6-12.7
		C397.8,410.8,395.1,404.5,390.9,403.8z M324.7,474.5c-35,0-63.3-28.3-63.3-63.3c0-35,28.3-63.3,63.3-63.3c35,0,63.3,28.3,63.3,63.3
		C388,446.2,359.6,474.5,324.7,474.5z"/>
	<path class="st2" d="M324.7,457.7c-25.6,0-46.5-20.8-46.5-46.5c0-25.6,20.8-46.5,46.5-46.5c25.6,0,46.5,20.8,46.5,46.5
		C371.2,436.8,350.3,457.7,324.7,457.7z"/>
	<path class="st1" d="M324.7,367.3c-24.2,0-44,19.7-44,44c0,24.2,19.7,44,44,44c24.2,0,44-19.7,44-44
		C368.7,387,348.9,367.3,324.7,367.3z"/>
	<path class="st2" d="M324.7,349.9c-33.8,0-61.3,27.5-61.3,61.3c0,33.8,27.5,61.3,61.3,61.3c33.8,0,61.3-27.5,61.3-61.3
		C386,377.4,358.5,349.9,324.7,349.9z"/>
	<path class="st3" d="M379.7,406.2c-0.4-5.1-2.8-9.1-5.8-10.3c1.8-2.6,1.5-7.3-0.9-11.7c-2.4-4.3-6.3-7.2-9.4-7
		c0.6-3.1-1.5-7.3-5.6-10.3c-2.7-2.1-5.8-3.2-8.5-3.2c-1.1,0-2.2,0.2-3,0.7c-0.7-3.1-4.4-6-9.4-7.2c-1.4-0.3-2.7-0.5-4-0.5
		c-3.3,0-5.9,1-7.4,2.6c-1.5-1.8-4.4-2.9-7.9-2.9c-1.1,0-2.2,0.1-3.3,0.3c-5,0.9-8.8,3.7-9.7,6.8c-0.9-0.5-2.1-0.8-3.4-0.8
		c-2.6,0-5.6,1.1-8.2,2.9c-4.2,2.9-6.6,7-6.1,10.1c-0.2,0-0.3,0-0.5,0c-3.1,0-6.8,2.6-9.2,6.7c-2.7,4.4-3.1,9-1.4,11.7
		c-3,1-5.5,5-6.2,10c-0.7,5.1,0.8,9.5,3.4,11.3c-2.3,2.1-3,6.8-1.6,11.7c1.4,4.8,4.6,8.4,7.7,8.9c-0.5,1.2-0.6,2.6-0.3,4.2
		c0.4,2.4,1.7,4.9,3.6,7.1c2.7,3.2,6.3,5.1,9.2,5.1c0.5,0,1-0.1,1.5-0.2c0,1.3,0.5,2.6,1.4,4c1.4,2,3.6,3.7,6.2,5
		c2.3,1.1,4.7,1.6,6.8,1.6c2.1,0,3.8-0.5,4.9-1.5c1.3,2.9,5.5,5,10.6,5.1c0.1,0,0.3,0,0.4,0c4.9,0,9-1.9,10.4-4.6
		c1.2,1.1,3.1,1.7,5.4,1.7c2,0,4.2-0.5,6.4-1.4c4.7-2,7.8-5.5,8-8.6c0.5,0.2,1.1,0.3,1.7,0.3c2.9,0,6.4-1.8,9.1-4.8
		c3.5-3.7,4.9-8.2,3.8-11.2c3.2-0.4,6.5-3.8,8.1-8.5c1.7-4.8,1.2-9.5-1.1-11.7C378.5,415.7,380.2,411.3,379.7,406.2z M377.7,406.4
		c0.4,4.4-1,8.3-3.2,9.3c0.1-1.5,0.2-3,0.2-4.5c0-4.7-0.6-9.2-1.9-13.5C375.3,398.3,377.3,401.9,377.7,406.4z M324.7,459.3
		c-26.5,0-48.1-21.6-48.1-48.1c0-26.5,21.6-48.1,48.1-48.1c26.5,0,48.1,21.6,48.1,48.1C372.8,437.7,351.2,459.3,324.7,459.3z
		 M363.9,379.1c2.4,0,5.5,2.5,7.4,6c2.2,3.9,2.4,8.1,0.8,9.9c-2-5.8-5-11.2-8.9-15.8C363.4,379.1,363.6,379.1,363.9,379.1z
		 M356.7,368.4c3.7,2.8,5.6,6.6,4.7,8.9c-4.1-4.5-9.1-8.2-14.6-10.9c0.8-0.6,1.8-0.8,2.6-0.8C351.7,365.5,354.4,366.6,356.7,368.4z
		 M333.1,358.6c1.2,0,2.4,0.1,3.6,0.4c4.5,1,7.9,3.8,7.9,6.3c-5.5-2.4-11.5-3.8-17.8-4.1C327.5,359.6,330,358.6,333.1,358.6z
		 M314.8,358.5c1-0.2,2-0.3,3-0.3c3.4,0,6.1,1.2,6.8,2.9c-6.3,0-12.4,1.2-18,3.4C306.6,362,310.2,359.4,314.8,358.5z M294.3,367
		c2.3-1.6,4.9-2.5,7.1-2.5c1.3,0,2.3,0.3,2.9,1c-5.7,2.5-10.8,6.1-15.1,10.4C288.3,373.6,290.5,369.7,294.3,367z M279.1,383.2
		c2-3.4,5.1-5.7,7.5-5.7c0.3,0,0.7,0.1,1,0.2c-4.1,4.5-7.4,9.8-9.6,15.5C276.3,391.4,276.7,387.1,279.1,383.2z M271.8,404.1
		c0.6-4.5,2.9-8.2,5.4-8.5c-1.6,4.9-2.5,10.2-2.5,15.6c0,0.8,0,1.6,0.1,2.4C272.5,412.6,271.2,408.6,271.8,404.1z M273.6,426.2
		c-1.3-4.3-0.7-8.5,1.3-9.9c0.6,6.2,2.4,12.1,5.1,17.4C277.6,433.6,274.8,430.4,273.6,426.2z M284.2,445.7c-1.7-1.9-2.8-4.1-3.2-6.1
		c-0.3-1.4-0.1-2.5,0.3-3.3c3,5.3,7,9.9,11.7,13.7c-0.3,0.1-0.7,0.2-1.1,0.2C289.6,450.1,286.6,448.4,284.2,445.7z M301.9,459.1
		c-2.3-1.1-4.2-2.6-5.4-4.3c-0.7-1.1-1.1-2.1-1.1-3c4.8,3.5,10.3,6.1,16.1,7.7c-0.8,0.7-2.1,1-3.7,1
		C306,460.6,303.9,460,301.9,459.1z M323.5,464.2c-4.2-0.1-7.9-1.8-8.8-3.9c3.2,0.7,6.6,1,10.1,1c2.6,0,5.2-0.2,7.8-0.6
		C331.4,462.7,327.7,464.3,323.5,464.2z M345.3,460c-1.9,0.8-3.8,1.2-5.6,1.2c-1.8,0-3.2-0.4-4.1-1.2c5.9-1.3,11.5-3.7,16.4-7
		C352,455.5,349.2,458.4,345.3,460z M363.5,447.4c-2.4,2.5-5.3,4.1-7.7,4.1c-0.4,0-0.8-0.1-1.2-0.2c4.8-3.6,8.9-8,12.2-13.1
		C367.8,440.4,366.4,444.2,363.5,447.4z M375,428.4c-1.4,4-4.2,7-6.5,7.2c2.9-5.2,4.9-10.9,5.8-17C376,420.1,376.4,424.3,375,428.4z
		"/>
	<g>
		<g>
			<path class="st3" d="M325.2,422.3c-6.4,0-11.6-5.2-11.6-11.6c0-6.4,5.2-11.6,11.6-11.6c6.4,0,11.6,5.2,11.6,11.6
				C336.7,417.1,331.6,422.3,325.2,422.3z M325.2,402.2c-4.7,0-8.6,3.8-8.6,8.6c0,4.7,3.8,8.6,8.6,8.6c4.7,0,8.6-3.8,8.6-8.6
				C333.7,406,329.9,402.2,325.2,402.2z"/>
		</g>
		<g>
			<g>
				<path class="st3" d="M315.1,406.4c-0.3,0-0.6-0.1-0.9-0.3c-7.7-5.8-9.9-12.8-10.4-17.6c-0.6-5.2,0.7-9.1,0.8-9.3
					c0.2-0.7,1-1.2,1.8-1c0.2,0,16.9,4.1,19.3,21.9c0.1,0.8-0.5,1.6-1.3,1.7c-0.8,0.1-1.6-0.5-1.7-1.3
					c-1.8-12.9-11.9-17.6-15.6-18.9c-0.8,3.7-1.7,14,8.9,22.1c0.7,0.5,0.8,1.4,0.3,2.1C316,406.2,315.6,406.4,315.1,406.4z"/>
			</g>
			<g>
				<path class="st3" d="M319.6,402.3c0,0-1.3-14.2-11.2-18.1C308.4,384.2,308.1,396.2,319.6,402.3z"/>
			</g>
			<g>
				<path class="st3" d="M333.8,406.4c-0.5,0-0.9-0.2-1.2-0.6c-0.5-0.7-0.4-1.6,0.3-2.1c10.5-8,9.7-18.4,8.9-22.1
					c-3.8,1.3-13.8,6-15.6,18.9c-0.1,0.8-0.9,1.4-1.7,1.3c-0.8-0.1-1.4-0.9-1.3-1.7c2.4-17.7,19.2-21.8,19.3-21.9
					c0.8-0.2,1.5,0.3,1.8,1c0.1,0.2,5.1,15.7-9.6,26.9C334.4,406.3,334.1,406.4,333.8,406.4z"/>
			</g>
			<g>
				<path class="st3" d="M329.3,402.3c0,0,1.3-14.2,11.2-18.1C340.6,384.2,340.8,396.2,329.3,402.3z"/>
			</g>
			<g>
				<path class="st3" d="M344.8,418.8c-3,0-6.4-0.6-10-2c-0.8-0.3-1.2-1.2-0.9-2c0.3-0.8,1.2-1.2,2-0.9c12.3,4.8,20.7-1.3,23.5-3.9
					c-3.1-2.5-12.3-8.7-24.3-3.5c-0.8,0.3-1.7,0-2-0.8c-0.3-0.8,0-1.7,0.8-2c16.4-7.2,28.6,5,28.7,5.1c0.5,0.6,0.6,1.4,0.1,2
					C362.6,411,356,418.8,344.8,418.8z"/>
			</g>
			<g>
				<path class="st3" d="M335.2,410.2c0,0,12.7-6.3,21.3,0.1C356.5,410.3,346.4,416.8,335.2,410.2z"/>
			</g>
			<g>
				<path class="st3" d="M305.7,418.8c-10.6,0-17.8-6.9-17.9-7c-0.6-0.5-0.6-1.4-0.1-2c0.1-0.1,10.5-12.8,27.8-6.4
					c0.8,0.3,1.2,1.2,0.9,1.9c-0.3,0.8-1.2,1.2-1.9,0.9c-12.4-4.5-20.7,1.8-23.4,4.4c3.1,2.5,12.5,8.4,24.3,2.9c0.8-0.4,1.7,0,2,0.7
					c0.3,0.8,0,1.7-0.7,2C312.7,418.1,309,418.8,305.7,418.8z"/>
			</g>
			<g>
				<path class="st3" d="M315.2,409.9c0,0-12.6,6.6-21.3,0.3C293.9,410.2,303.8,403.6,315.2,409.9z"/>
			</g>
			<g>
				<path class="st3" d="M308.7,443.2c-0.6,0-1.2-0.4-1.4-1c-0.1-0.2-5.7-16.5,8-28.1c0.6-0.5,1.6-0.5,2.1,0.2
					c0.5,0.6,0.5,1.6-0.2,2.1c-9.8,8.4-8.4,19.5-7.5,23.4c3.6-1.4,12.7-6.2,13.8-19.5c0.1-0.8,0.8-1.4,1.6-1.4
					c0.8,0.1,1.4,0.8,1.4,1.6c-1.5,18.4-17.3,22.6-17.4,22.6C308.9,443.2,308.8,443.2,308.7,443.2z"/>
			</g>
			<g>
				<path class="st3" d="M320.4,418.1c0,0-11.2,8.7-9.2,19.2C311.2,437.3,321.5,431.1,320.4,418.1z"/>
			</g>
			<g>
				<path class="st3" d="M344.3,442.6c-0.1,0-0.2,0-0.3,0c-0.2,0-17-3.8-19.8-21.4c-0.1-0.8,0.4-1.6,1.3-1.7
					c0.8-0.1,1.6,0.4,1.7,1.3c2,12.9,12.2,17.3,16,18.6c0.7-3.7,1.4-14.1-9.4-21.9c-0.7-0.5-0.8-1.4-0.3-2.1
					c0.5-0.7,1.4-0.8,2.1-0.3c7.8,5.7,10.2,12.6,10.8,17.4c0.7,5.2-0.5,9.1-0.6,9.3C345.5,442.2,344.9,442.6,344.3,442.6z"/>
			</g>
			<g>
				<path class="st3" d="M330.2,418.8c0,0,1.6,14.1,11.6,17.8C341.8,436.6,341.8,424.6,330.2,418.8z"/>
			</g>
		</g>
		<g>
			<g>
				<path class="st3" d="M327.3,385.1c-0.2-1.5-3-5.8-3-5.8v0l0,0v0v0c0,0-2.9,4.3-3,5.8c-0.2,1.5,0.8,2.9,3,4.6v0l0,0h0v0
					C326.5,388,327.4,386.6,327.3,385.1z"/>
			</g>
			<g>
				<path class="st3" d="M320.7,372.6v3.8c0,0-0.1,2.4-1.4,2.4c-1.3-0.1-1.3-1.2-1.3-1.2l0,0c0.8-0.7,1.3-1.8,1.3-3
					c0-2.2-1.8-3.9-3.9-3.9c-2.2,0-3.9,1.8-3.9,3.9c0,0,0,0,0,0c0,0.3,0,0.6,0.1,0.9c0.3,1.8,1.6,5.7,6.4,6.1
					c5.5,0.5,6.2-4.3,6.2-4.3v-8C321,368.9,320.7,372.6,320.7,372.6z"/>
			</g>
			<g>
				<path class="st3" d="M328.2,372.6v3.8c0,0,0.1,2.4,1.4,2.4c1.3-0.1,1.3-1.2,1.3-1.2l0,0c-0.8-0.7-1.3-1.8-1.3-3
					c0-2.2,1.8-3.9,3.9-3.9c2.2,0,3.9,1.8,3.9,3.9c0,0,0,0,0,0c0,0.3,0,0.6-0.1,0.9c-0.3,1.8-1.6,5.7-6.4,6.1
					c-5.5,0.5-6.2-4.3-6.2-4.3v-8C327.9,368.9,328.2,372.6,328.2,372.6z"/>
			</g>
		</g>
		<g>
			<g>
				<path class="st3" d="M328.4,436.8c-0.2,1.5-3,5.8-3,5.8v0l0,0v0v0c0,0-2.9-4.3-3-5.8c-0.2-1.5,0.8-2.9,3-4.6v0l0,0c0,0,0,0,0,0
					v0C327.6,433.9,328.6,435.3,328.4,436.8z"/>
			</g>
			<g>
				<path class="st3" d="M321.9,449.3v-3.8c0,0-0.1-2.4-1.4-2.4c-1.3,0.1-1.3,1.2-1.3,1.2l0,0c0.8,0.7,1.3,1.8,1.3,3
					c0,2.2-1.8,3.9-3.9,3.9c-2.2,0-3.9-1.8-3.9-3.9c0,0,0,0,0,0c0-0.3,0-0.6,0.1-0.9c0.3-1.8,1.6-5.7,6.4-6.1
					c5.5-0.5,6.2,4.3,6.2,4.3v8C322.2,452.9,321.9,449.3,321.9,449.3z"/>
			</g>
			<g>
				<path class="st3" d="M329.4,449.3v-3.8c0,0,0.1-2.4,1.4-2.4c1.3,0.1,1.3,1.2,1.3,1.2l0,0c-0.8,0.7-1.3,1.8-1.3,3
					c0,2.2,1.8,3.9,3.9,3.9c2.2,0,3.9-1.8,3.9-3.9c0,0,0,0,0,0c0-0.3,0-0.6-0.1-0.9c-0.3-1.8-1.6-5.7-6.4-6.1
					c-5.5-0.5-6.2,4.3-6.2,4.3v8C329.1,452.9,329.4,449.3,329.4,449.3z"/>
			</g>
		</g>
		<g>
			<g>
				<path class="st3" d="M349.5,399.4c1.1-1,2.9-5.8,2.9-5.8l0,0l0,0h0l0,0c0,0-5.2,0.1-6.5,0.9c-1.3,0.7-1.9,2.3-2,5.1l0,0l0,0
					c0,0,0,0,0,0h0C346.7,400.4,348.4,400.4,349.5,399.4z"/>
			</g>
			<g>
				<path class="st3" d="M356,386.9l-3.1,2.2c0,0-2,1.3-2.7,0.2c-0.7-1.1,0.2-1.8,0.2-1.8l0,0c1.1,0.3,2.2,0.1,3.2-0.6
					c1.8-1.3,2.2-3.7,0.9-5.5c-1.3-1.8-3.7-2.2-5.5-0.9c0,0,0,0,0,0c-0.3,0.2-0.5,0.4-0.7,0.6c-1.3,1.3-3.7,4.6-1.3,8.8
					c2.8,4.8,7.1,2.6,7.1,2.6l6.5-4.6C359.1,385,356,386.9,356,386.9z"/>
			</g>
			<g>
				<path class="st3" d="M360.3,393l-3.1,2.2c0,0-1.9,1.5-1.1,2.5c0.8,1,1.8,0.4,1.8,0.4l0,0c0.1-1.1,0.7-2.1,1.6-2.8
					c1.8-1.3,4.2-0.8,5.5,0.9c1.3,1.8,0.8,4.2-0.9,5.5c0,0,0,0,0,0c-0.3,0.2-0.6,0.3-0.8,0.4c-1.7,0.8-5.6,1.9-8.7-1.7
					c-3.6-4.2-0.1-7.5-0.1-7.5l6.5-4.6C363.1,390.6,360.3,393,360.3,393z"/>
			</g>
		</g>
		<g>
			<g>
				<path class="st3" d="M300.6,400.3c-1.2-0.8-3.7-5.4-3.7-5.4v0h0h0l0,0c0,0,5.2-0.5,6.5,0c1.4,0.5,2.1,2,2.7,4.8l0,0l0,0
					c0,0,0,0,0,0l0,0C303.5,400.9,301.8,401.1,300.6,400.3z"/>
			</g>
			<g>
				<path class="st3" d="M292.5,388.6l3.3,1.8c0,0,2.2,1,2.7-0.1c0.6-1.2-0.5-1.8-0.5-1.8v0c-1,0.4-2.2,0.4-3.2-0.2
					c-1.9-1-2.7-3.4-1.6-5.3c1-1.9,3.4-2.7,5.3-1.6c0,0,0,0,0,0c0.3,0.2,0.5,0.3,0.8,0.6c1.5,1.2,4.2,4.1,2.4,8.5
					c-2.1,5.1-6.7,3.5-6.7,3.5l-7-3.7C289.2,387.2,292.5,388.6,292.5,388.6z"/>
			</g>
			<g>
				<path class="st3" d="M289.1,395.2l3.3,1.8c0,0,2.1,1.2,1.4,2.3c-0.7,1.1-1.7,0.6-1.7,0.6l0,0c-0.3-1.1-0.9-2-2-2.6
					c-1.9-1-4.3-0.3-5.3,1.6c-1,1.9-0.3,4.3,1.6,5.3c0,0,0,0,0,0c0.3,0.2,0.6,0.3,0.9,0.3c1.8,0.6,5.8,1.2,8.4-2.8
					c3-4.6-0.8-7.5-0.8-7.5l-7-3.7C286,393.2,289.1,395.2,289.1,395.2z"/>
			</g>
		</g>
		<g>
			<g>
				<path class="st3" d="M304.7,425.5c-1.3,0.7-6.5,0.7-6.5,0.7l0,0l0,0v0l0,0c0,0,1.9-4.8,3-5.7c1.1-0.9,2.8-0.9,5.5-0.1h0l0,0
					c0,0,0,0,0,0v0C306.6,423.2,306,424.8,304.7,425.5z"/>
			</g>
			<g>
				<path class="st3" d="M290.7,427.1l3.1-2.1c0,0,1.9-1.4,1.2-2.5c-0.8-1-1.8-0.4-1.8-0.4l0,0c-0.1,1.1-0.7,2.1-1.7,2.8
					c-1.8,1.2-4.3,0.8-5.5-1c-1.2-1.8-0.8-4.3,1-5.5c0,0,0,0,0,0c0.3-0.2,0.6-0.3,0.9-0.4c1.7-0.7,5.6-1.8,8.7,1.8
					c3.5,4.3,0,7.5,0,7.5l-6.6,4.5C287.9,429.5,290.7,427.1,290.7,427.1z"/>
			</g>
			<g>
				<path class="st3" d="M294.9,433.3l3.1-2.1c0,0,2-1.3,2.7-0.2c0.7,1.1-0.3,1.8-0.3,1.8l0,0c-1.1-0.3-2.2-0.1-3.2,0.6
					c-1.8,1.2-2.3,3.7-1,5.5c1.2,1.8,3.7,2.3,5.5,1c0,0,0,0,0,0c0.3-0.2,0.5-0.4,0.7-0.6c1.3-1.3,3.8-4.6,1.4-8.8
					c-2.7-4.8-7-2.7-7-2.7l-6.6,4.5C291.7,435.1,294.9,433.3,294.9,433.3z"/>
			</g>
		</g>
		<g>
			<g>
				<path class="st3" d="M346.8,426.1c1.3,0.6,6.5,0.1,6.5,0.1l0,0v0l0,0l0,0c0,0-2.4-4.6-3.6-5.4c-1.2-0.8-2.9-0.7-5.5,0.5l0,0l0,0
					c0,0,0,0,0,0l0,0C344.7,424,345.5,425.5,346.8,426.1z"/>
			</g>
			<g>
				<path class="st3" d="M360.9,426.3l-3.3-1.8c0,0-2.1-1.2-1.4-2.4c0.7-1.1,1.7-0.6,1.7-0.6l0,0c0.2,1.1,0.9,2,2,2.6
					c1.9,1,4.3,0.3,5.4-1.6c1-1.9,0.3-4.3-1.6-5.4c0,0,0,0,0,0c-0.3-0.2-0.6-0.3-0.9-0.3c-1.8-0.6-5.8-1.3-8.5,2.7
					c-3.1,4.6,0.7,7.5,0.7,7.5l7,3.8C364,428.4,360.9,426.3,360.9,426.3z"/>
			</g>
			<g>
				<path class="st3" d="M357.4,432.9l-3.3-1.8c0,0-2.2-1.1-2.7,0.1c-0.6,1.2,0.4,1.8,0.4,1.8l0,0c1-0.4,2.2-0.3,3.2,0.2
					c1.9,1,2.6,3.4,1.6,5.4c-1,1.9-3.4,2.6-5.4,1.6c0,0,0,0,0,0c-0.3-0.2-0.5-0.3-0.8-0.6c-1.4-1.2-4.2-4.2-2.3-8.6
					c2.2-5.1,6.7-3.4,6.7-3.4l7,3.8C360.7,434.4,357.4,432.9,357.4,432.9z"/>
			</g>
		</g>
	</g>
</g>
<g>
	<path class="st1" d="M239.8,40c-15.4,0-28-12.6-28-28c0-15.4,12.6-28,28-28s28,12.6,28,28C267.8,27.5,255.3,40,239.8,40z"/>
	<path class="st4" d="M268.2,8.9c0,0,0-0.1,0-0.1c1.7-0.6,2.3-3.5,1.3-6.5c-1-3.1-3.2-5.1-5-4.5c0,0,0-0.1,0-0.1l0,0
		c1.4-1.2,0.8-4.2-1.4-6.6c-2.1-2.4-5-3.3-6.4-2.1c0,0,0,0,0,0c0,0,0,0-0.1-0.1c0,0,0,0,0,0c0.8-1.7-1-4.1-3.9-5.4
		c-2.9-1.3-5.9-1-6.7,0.7c0,0-0.1,0-0.1,0c0-1.9-2.6-3.3-5.8-3.3c-3.1,0-5.6,1.4-5.8,3.2c-0.9-1.6-3.7-1.8-6.6-0.6
		c-2.8,1.2-4.5,3.5-4.1,5.2c-0.1,0-0.1,0.1-0.2,0.1c-1.4-1-4.1,0-6.2,2.2c-2,2.2-2.7,4.8-1.7,6.2c-0.1,0.1-0.1,0.2-0.2,0.3
		c-1.7-0.1-3.6,1.8-4.6,4.6c-0.9,2.7-0.5,5.3,0.8,6.3c0,0.2,0,0.4-0.1,0.6c-1.5,0.7-2.4,3.1-2.1,5.9c0.3,2.7,1.6,4.9,3.1,5.4
		c0.1,0.2,0.1,0.5,0.2,0.7c-1,1.3-0.8,3.8,0.6,6.2c1.3,2.3,3.4,3.8,5,3.6c0.2,0.2,0.4,0.4,0.6,0.6c-0.3,1.5,0.9,3.7,3.1,5.3
		c2.2,1.6,4.6,2.1,6,1.3c0.3,0.1,0.5,0.2,0.8,0.3c0.3,1.5,2.3,3.1,5,3.6c2.7,0.6,5.2,0,6.1-1.3c0.1,0,0.1,0,0.2,0c0.2,0,0.3,0,0.5,0
		c0.9,1.3,3.4,1.9,6.1,1.4c2.8-0.6,4.8-2.2,5-3.8c0.2-0.1,0.3-0.2,0.5-0.2c1.3,1,3.9,0.5,6.2-1.1c2.4-1.7,3.6-4.2,3-5.7
		c0.1-0.1,0.2-0.2,0.3-0.3c1.6,0.5,3.9-1,5.4-3.5c1.5-2.6,1.6-5.5,0.2-6.6c0-0.1,0-0.2,0.1-0.2c1.7,0,3.4-2.4,3.7-5.4
		C271.2,11.9,270,9.2,268.2,8.9z"/>
	<path class="st3" d="M268.2,8.9c0,0,0-0.1,0-0.1c1.7-0.6,2.3-3.5,1.3-6.5c-1-3.1-3.2-5.1-5-4.5c0,0,0-0.1,0-0.1l0,0
		c1.4-1.2,0.8-4.2-1.4-6.6c-2.1-2.4-5-3.3-6.4-2.1c0,0,0,0,0,0c0,0,0,0-0.1-0.1c0,0,0,0,0,0c0.8-1.7-1-4.1-3.9-5.4
		c-2.9-1.3-5.9-1-6.7,0.7c0,0-0.1,0-0.1,0c0-1.9-2.6-3.3-5.8-3.3c-3.1,0-5.6,1.4-5.8,3.2c-0.9-1.6-3.7-1.8-6.6-0.6
		c-2.8,1.2-4.5,3.5-4.1,5.2c-0.1,0-0.1,0.1-0.2,0.1c-1.4-1-4.1,0-6.2,2.2c-2,2.2-2.7,4.8-1.7,6.2c-0.1,0.1-0.1,0.2-0.2,0.3
		c-1.7-0.1-3.6,1.8-4.6,4.6c-0.9,2.7-0.5,5.3,0.8,6.3c0,0.2,0,0.4-0.1,0.6c-1.5,0.7-2.4,3.1-2.1,5.9c0.3,2.7,1.6,4.9,3.1,5.4
		c0.1,0.2,0.1,0.5,0.2,0.7c-1,1.3-0.8,3.8,0.6,6.2c1.3,2.3,3.4,3.8,5,3.6c0.2,0.2,0.4,0.4,0.6,0.6c-0.3,1.5,0.9,3.7,3.1,5.3
		c2.2,1.6,4.6,2.1,6,1.3c0.3,0.1,0.5,0.2,0.8,0.3c0.3,1.5,2.3,3.1,5,3.6c2.7,0.6,5.2,0,6.1-1.3c0.1,0,0.1,0,0.2,0c0.2,0,0.3,0,0.5,0
		c0.9,1.3,3.4,1.9,6.1,1.4c2.8-0.6,4.8-2.2,5-3.8c0.2-0.1,0.3-0.2,0.5-0.2c1.3,1,3.9,0.5,6.2-1.1c2.4-1.7,3.6-4.2,3-5.7
		c0.1-0.1,0.2-0.2,0.3-0.3c1.6,0.5,3.9-1,5.4-3.5c1.5-2.6,1.6-5.5,0.2-6.6c0-0.1,0-0.2,0.1-0.2c1.7,0,3.4-2.4,3.7-5.4
		C271.2,11.9,270,9.2,268.2,8.9z M239.8,39.2c-15,0-27.1-12.1-27.1-27.1s12.1-27.1,27.1-27.1c15,0,27.1,12.1,27.1,27.1
		S254.8,39.2,239.8,39.2z"/>
	<path class="st4" d="M239.8,32c-11,0-19.9-8.9-19.9-19.9c0-11,8.9-19.9,19.9-19.9c11,0,19.9,8.9,19.9,19.9
		C259.7,23,250.8,32,239.8,32z"/>
	<path class="st1" d="M239.8-6.8C229.4-6.8,221,1.7,221,12s8.5,18.8,18.8,18.8c10.4,0,18.8-8.5,18.8-18.8S250.2-6.8,239.8-6.8z"/>
	<path class="st4" d="M239.8-14.2c-14.5,0-26.3,11.8-26.3,26.3c0,14.5,11.8,26.3,26.3,26.3c14.5,0,26.3-11.8,26.3-26.3
		C266.1-2.4,254.3-14.2,239.8-14.2z"/>
	<path class="st3" d="M263.4,9.9c-0.2-2.2-1.2-3.9-2.5-4.4c0.8-1.1,0.7-3.1-0.4-5c-1-1.9-2.7-3.1-4-3c0.3-1.3-0.7-3.1-2.4-4.4
		c-1.2-0.9-2.5-1.4-3.6-1.4c-0.5,0-0.9,0.1-1.3,0.3c-0.3-1.3-1.9-2.6-4-3.1c-0.6-0.1-1.2-0.2-1.7-0.2c-1.4,0-2.5,0.4-3.2,1.1
		c-0.6-0.8-1.9-1.2-3.4-1.2c-0.5,0-0.9,0-1.4,0.1c-2.2,0.4-3.8,1.6-4.1,2.9c-0.4-0.2-0.9-0.3-1.4-0.3c-1.1,0-2.4,0.5-3.5,1.2
		c-1.8,1.2-2.8,3-2.6,4.3c-0.1,0-0.1,0-0.2,0c-1.3,0-2.9,1.1-4,2.9c-1.1,1.9-1.3,3.9-0.6,5c-1.3,0.4-2.4,2.1-2.7,4.3
		c-0.3,2.2,0.3,4.1,1.5,4.8c-1,0.9-1.3,2.9-0.7,5c0.6,2,2,3.6,3.3,3.8c-0.2,0.5-0.3,1.1-0.1,1.8c0.2,1,0.7,2.1,1.6,3
		c1.2,1.4,2.7,2.2,4,2.2c0.2,0,0.4,0,0.6-0.1c0,0.5,0.2,1.1,0.6,1.7c0.6,0.8,1.5,1.6,2.7,2.1c1,0.5,2,0.7,2.9,0.7
		c0.9,0,1.6-0.2,2.1-0.6c0.6,1.2,2.4,2.1,4.6,2.2c0.1,0,0.1,0,0.2,0c2.1,0,3.9-0.8,4.5-2c0.5,0.5,1.3,0.7,2.3,0.7
		c0.9,0,1.8-0.2,2.7-0.6c2-0.9,3.4-2.4,3.4-3.7c0.2,0.1,0.5,0.1,0.7,0.1c1.2,0,2.7-0.8,3.9-2c1.5-1.6,2.1-3.5,1.6-4.8
		c1.4-0.2,2.8-1.6,3.5-3.7c0.7-2.1,0.5-4.1-0.5-5C262.9,14,263.6,12.1,263.4,9.9z M262.6,10c0.2,1.9-0.4,3.5-1.4,4
		c0.1-0.6,0.1-1.3,0.1-1.9c0-2-0.3-4-0.8-5.8C261.5,6.5,262.4,8.1,262.6,10z M239.8,32.6c-11.4,0-20.6-9.2-20.6-20.6
		c0-11.4,9.2-20.6,20.6-20.6c11.4,0,20.6,9.2,20.6,20.6C260.4,23.4,251.2,32.6,239.8,32.6z M256.6-1.7c1,0,2.3,1.1,3.2,2.6
		c0.9,1.7,1,3.5,0.3,4.2c-0.9-2.5-2.2-4.8-3.8-6.8C256.4-1.7,256.5-1.7,256.6-1.7z M253.6-6.3c1.6,1.2,2.4,2.8,2,3.8
		c-1.8-1.9-3.9-3.5-6.3-4.7c0.3-0.3,0.8-0.3,1.1-0.3C251.4-7.5,252.5-7.1,253.6-6.3z M243.4-10.5c0.5,0,1,0.1,1.5,0.2
		c1.9,0.4,3.4,1.6,3.4,2.7c-2.4-1-4.9-1.6-7.6-1.7C241-10.1,242.1-10.5,243.4-10.5z M235.6-10.5c0.4-0.1,0.9-0.1,1.3-0.1
		c1.4,0,2.6,0.5,2.9,1.2c-2.7,0-5.3,0.5-7.7,1.4C232.1-9,233.6-10.2,235.6-10.5z M226.8-6.9c1-0.7,2.1-1.1,3-1.1
		c0.5,0,1,0.1,1.3,0.4c-2.4,1.1-4.6,2.6-6.5,4.5C224.2-4.1,225.2-5.8,226.8-6.9z M220.3,0c0.9-1.4,2.2-2.4,3.2-2.4
		c0.1,0,0.3,0,0.4,0.1c-1.8,1.9-3.2,4.2-4.1,6.7C219.1,3.6,219.2,1.7,220.3,0z M217.1,9c0.2-1.9,1.3-3.5,2.3-3.6
		c-0.7,2.1-1.1,4.4-1.1,6.7c0,0.3,0,0.7,0,1C217.4,12.7,216.9,10.9,217.1,9z M217.9,18.5c-0.6-1.8-0.3-3.6,0.6-4.2
		c0.3,2.7,1,5.2,2.2,7.4C219.6,21.6,218.4,20.3,217.9,18.5z M222.5,26.8c-0.7-0.8-1.2-1.8-1.4-2.6c-0.1-0.6-0.1-1.1,0.1-1.4
		c1.3,2.3,3,4.2,5,5.9c-0.1,0-0.3,0.1-0.5,0.1C224.8,28.7,223.5,28,222.5,26.8z M230,32.6c-1-0.5-1.8-1.1-2.3-1.8
		c-0.3-0.5-0.5-0.9-0.5-1.3c2.1,1.5,4.4,2.6,6.9,3.3c-0.3,0.3-0.9,0.4-1.6,0.4C231.8,33.2,230.9,33,230,32.6z M239.3,34.8
		c-1.8,0-3.4-0.8-3.8-1.7c1.4,0.3,2.8,0.4,4.3,0.4c1.1,0,2.2-0.1,3.3-0.3C242.7,34.1,241.1,34.8,239.3,34.8z M248.6,33
		c-0.8,0.3-1.6,0.5-2.4,0.5c-0.8,0-1.4-0.2-1.7-0.5c2.5-0.6,4.9-1.6,7-3C251.5,31,250.3,32.3,248.6,33z M256.5,27.5
		c-1,1.1-2.3,1.8-3.3,1.8c-0.2,0-0.4,0-0.5-0.1c2.1-1.5,3.8-3.4,5.2-5.6C258.3,24.6,257.7,26.2,256.5,27.5z M261.4,19.4
		c-0.6,1.7-1.8,3-2.8,3.1c1.2-2.2,2.1-4.7,2.5-7.3C261.8,15.9,262,17.6,261.4,19.4z"/>
	<g>
		<g>
			<path class="st3" d="M240,16.8c-2.7,0-5-2.2-5-5s2.2-5,5-5s5,2.2,5,5S242.8,16.8,240,16.8z M240,8.2c-2,0-3.7,1.6-3.7,3.7
				c0,2,1.6,3.7,3.7,3.7s3.7-1.6,3.7-3.7C243.7,9.8,242,8.2,240,8.2z"/>
		</g>
		<g>
			<g>
				<path class="st3" d="M235.7,10c-0.1,0-0.3,0-0.4-0.1c-3.3-2.5-4.2-5.5-4.5-7.6c-0.2-2.2,0.3-3.9,0.3-4c0.1-0.3,0.4-0.5,0.8-0.4
					c0.1,0,7.3,1.8,8.3,9.4c0,0.4-0.2,0.7-0.6,0.7c-0.4,0-0.7-0.2-0.7-0.6c-0.8-5.5-5.1-7.5-6.7-8.1c-0.3,1.6-0.7,6,3.8,9.5
					c0.3,0.2,0.3,0.6,0.1,0.9C236.1,9.9,235.9,10,235.7,10z"/>
			</g>
			<g>
				<path class="st3" d="M237.6,8.2c0,0-0.5-6.1-4.8-7.8C232.8,0.5,232.7,5.6,237.6,8.2z"/>
			</g>
			<g>
				<path class="st3" d="M243.7,10c-0.2,0-0.4-0.1-0.5-0.3C243,9.4,243,9,243.3,8.8c4.5-3.4,4.1-7.9,3.8-9.5
					c-1.6,0.6-5.9,2.6-6.7,8.1c0,0.4-0.4,0.6-0.7,0.6c-0.4,0-0.6-0.4-0.6-0.7c1-7.6,8.2-9.4,8.3-9.4c0.3-0.1,0.7,0.1,0.8,0.4
					c0,0.1,2.2,6.7-4.1,11.5C244,9.9,243.9,10,243.7,10z"/>
			</g>
			<g>
				<path class="st3" d="M241.8,8.2c0,0,0.5-6.1,4.8-7.8C246.6,0.5,246.7,5.6,241.8,8.2z"/>
			</g>
			<g>
				<path class="st3" d="M248.4,15.3c-1.3,0-2.7-0.2-4.3-0.9c-0.3-0.1-0.5-0.5-0.4-0.8c0.1-0.3,0.5-0.5,0.8-0.4
					c5.3,2.1,8.9-0.6,10.1-1.7c-1.3-1.1-5.3-3.7-10.4-1.5c-0.3,0.1-0.7,0-0.9-0.3c-0.1-0.3,0-0.7,0.3-0.9c7-3.1,12.3,2.1,12.3,2.2
					c0.2,0.2,0.2,0.6,0,0.9C256.1,12,253.2,15.3,248.4,15.3z"/>
			</g>
			<g>
				<path class="st3" d="M244.3,11.6c0,0,5.5-2.7,9.1,0.1C253.4,11.7,249.1,14.4,244.3,11.6z"/>
			</g>
			<g>
				<path class="st3" d="M231.7,15.3c-4.5,0-7.6-3-7.7-3c-0.2-0.2-0.3-0.6-0.1-0.9c0-0.1,4.5-5.5,11.9-2.8c0.3,0.1,0.5,0.5,0.4,0.8
					c-0.1,0.3-0.5,0.5-0.8,0.4c-5.3-1.9-8.9,0.8-10,1.9c1.4,1.1,5.4,3.6,10.4,1.3c0.3-0.2,0.7,0,0.9,0.3c0.2,0.3,0,0.7-0.3,0.9
					C234.7,15,233.1,15.3,231.7,15.3z"/>
			</g>
			<g>
				<path class="st3" d="M235.7,11.5c0,0-5.4,2.8-9.1,0.1C226.6,11.6,230.9,8.8,235.7,11.5z"/>
			</g>
			<g>
				<path class="st3" d="M233,25.8c-0.3,0-0.5-0.2-0.6-0.4c0-0.1-2.4-7.1,3.4-12c0.3-0.2,0.7-0.2,0.9,0.1c0.2,0.3,0.2,0.7-0.1,0.9
					c-4.2,3.6-3.6,8.3-3.2,10c1.5-0.6,5.5-2.6,5.9-8.3c0-0.4,0.3-0.6,0.7-0.6c0.4,0,0.6,0.3,0.6,0.7c-0.6,7.9-7.4,9.7-7.5,9.7
					C233.1,25.8,233,25.8,233,25.8z"/>
			</g>
			<g>
				<path class="st3" d="M238,15c0,0-4.8,3.7-3.9,8.2C234.1,23.2,238.4,20.6,238,15z"/>
			</g>
			<g>
				<path class="st3" d="M248.2,25.5c0,0-0.1,0-0.1,0c-0.1,0-7.3-1.6-8.5-9.2c-0.1-0.4,0.2-0.7,0.5-0.7c0.4-0.1,0.7,0.2,0.7,0.5
					c0.9,5.5,5.2,7.4,6.9,8c0.3-1.6,0.6-6-4-9.4c-0.3-0.2-0.4-0.6-0.1-0.9c0.2-0.3,0.6-0.4,0.9-0.1c3.3,2.4,4.4,5.4,4.6,7.5
					c0.3,2.2-0.2,3.9-0.2,4C248.7,25.3,248.5,25.5,248.2,25.5z"/>
			</g>
			<g>
				<path class="st3" d="M242.2,15.3c0,0,0.7,6.1,5,7.7C247.2,22.9,247.2,17.8,242.2,15.3z"/>
			</g>
		</g>
		<g>
			<g>
				<path class="st3" d="M240.9,0.9c-0.1-0.6-1.3-2.5-1.3-2.5v0h0l0,0v0c0,0-1.2,1.8-1.3,2.5c-0.1,0.6,0.3,1.2,1.3,2v0l0,0h0v0
					C240.6,2.1,241,1.5,240.9,0.9z"/>
			</g>
			<g>
				<path class="st3" d="M238.1-4.5v1.6c0,0,0,1-0.6,1c-0.6,0-0.6-0.5-0.6-0.5l0,0c0.4-0.3,0.6-0.8,0.6-1.3c0-0.9-0.8-1.7-1.7-1.7
					c-0.9,0-1.7,0.8-1.7,1.7c0,0,0,0,0,0c0,0.1,0,0.3,0.1,0.4c0.1,0.8,0.7,2.4,2.8,2.6c2.4,0.2,2.7-1.8,2.7-1.8v-3.4
					C238.3-6.1,238.1-4.5,238.1-4.5z"/>
			</g>
			<g>
				<path class="st3" d="M241.3-4.5v1.6c0,0,0,1,0.6,1c0.6,0,0.6-0.5,0.6-0.5l0,0c-0.4-0.3-0.6-0.8-0.6-1.3c0-0.9,0.8-1.7,1.7-1.7
					c0.9,0,1.7,0.8,1.7,1.7c0,0,0,0,0,0c0,0.1,0,0.3-0.1,0.4c-0.1,0.8-0.7,2.4-2.8,2.6c-2.4,0.2-2.7-1.8-2.7-1.8v-3.4
					C241.2-6.1,241.3-4.5,241.3-4.5z"/>
			</g>
		</g>
		<g>
			<g>
				<path class="st3" d="M241.4,23c-0.1,0.6-1.3,2.5-1.3,2.5v0l0,0v0v0c0,0-1.2-1.8-1.3-2.5c-0.1-0.6,0.3-1.2,1.3-2v0l0,0
					c0,0,0,0,0,0v0C241.1,21.8,241.5,22.4,241.4,23z"/>
			</g>
			<g>
				<path class="st3" d="M238.6,28.4v-1.6c0,0,0-1-0.6-1c-0.6,0-0.6,0.5-0.6,0.5l0,0c0.4,0.3,0.6,0.8,0.6,1.3c0,0.9-0.8,1.7-1.7,1.7
					c-0.9,0-1.7-0.8-1.7-1.7c0,0,0,0,0,0c0-0.1,0-0.3,0.1-0.4c0.1-0.8,0.7-2.4,2.8-2.6c2.4-0.2,2.7,1.8,2.7,1.8v3.4
					C238.8,29.9,238.6,28.4,238.6,28.4z"/>
			</g>
			<g>
				<path class="st3" d="M241.8,28.4v-1.6c0,0,0-1,0.6-1c0.6,0,0.6,0.5,0.6,0.5l0,0c-0.4,0.3-0.6,0.8-0.6,1.3c0,0.9,0.8,1.7,1.7,1.7
					c0.9,0,1.7-0.8,1.7-1.7c0,0,0,0,0,0c0-0.1,0-0.3-0.1-0.4c-0.1-0.8-0.7-2.4-2.8-2.6c-2.4-0.2-2.7,1.8-2.7,1.8v3.4
					C241.7,29.9,241.8,28.4,241.8,28.4z"/>
			</g>
		</g>
		<g>
			<g>
				<path class="st3" d="M250.5,7c0.5-0.4,1.3-2.5,1.3-2.5l0,0l0,0h0l0,0c0,0-2.2,0.1-2.8,0.4c-0.5,0.3-0.8,1-0.9,2.2h0l0,0
					c0,0,0,0,0,0l0,0C249.3,7.4,250,7.4,250.5,7z"/>
			</g>
			<g>
				<path class="st3" d="M253.2,1.6l-1.3,0.9c0,0-0.9,0.6-1.2,0.1c-0.3-0.5,0.1-0.8,0.1-0.8l0,0c0.5,0.1,1,0,1.4-0.3
					c0.8-0.5,0.9-1.6,0.4-2.4c-0.5-0.8-1.6-0.9-2.4-0.4c0,0,0,0,0,0c-0.1,0.1-0.2,0.2-0.3,0.3c-0.6,0.6-1.6,2-0.6,3.8
					c1.2,2.1,3,1.1,3,1.1l2.8-2C254.6,0.8,253.2,1.6,253.2,1.6z"/>
			</g>
			<g>
				<path class="st3" d="M255.1,4.2l-1.3,0.9c0,0-0.8,0.6-0.5,1.1c0.3,0.4,0.8,0.2,0.8,0.2l0,0c0-0.5,0.3-0.9,0.7-1.2
					c0.8-0.5,1.8-0.4,2.4,0.4c0.5,0.8,0.4,1.8-0.4,2.4c0,0,0,0,0,0c-0.1,0.1-0.2,0.1-0.4,0.2c-0.7,0.3-2.4,0.8-3.7-0.7
					c-1.5-1.8-0.1-3.2-0.1-3.2l2.8-2C256.3,3.2,255.1,4.2,255.1,4.2z"/>
			</g>
		</g>
		<g>
			<g>
				<path class="st3" d="M229.5,7.3C229,7,227.9,5,227.9,5v0l0,0l0,0v0c0,0,2.2-0.2,2.8,0c0.6,0.2,0.9,0.9,1.1,2.1l0,0l0,0
					c0,0,0,0,0,0h0C230.7,7.6,230,7.7,229.5,7.3z"/>
			</g>
			<g>
				<path class="st3" d="M226,2.4l1.4,0.8c0,0,0.9,0.4,1.2-0.1c0.2-0.5-0.2-0.8-0.2-0.8v0c-0.4,0.2-0.9,0.2-1.4-0.1
					c-0.8-0.4-1.1-1.5-0.7-2.3c0.4-0.8,1.5-1.1,2.3-0.7c0,0,0,0,0,0c0.1,0.1,0.2,0.1,0.3,0.2c0.6,0.5,1.8,1.8,1,3.7
					c-0.9,2.2-2.9,1.5-2.9,1.5l-3-1.6C224.6,1.8,226,2.4,226,2.4z"/>
			</g>
			<g>
				<path class="st3" d="M224.5,5.2l1.4,0.8c0,0,0.9,0.5,0.6,1c-0.3,0.5-0.7,0.3-0.7,0.3l0,0c-0.1-0.5-0.4-0.9-0.9-1.1
					c-0.8-0.4-1.9-0.1-2.3,0.7c-0.4,0.8-0.1,1.9,0.7,2.3c0,0,0,0,0,0c0.1,0.1,0.3,0.1,0.4,0.1c0.8,0.2,2.5,0.5,3.6-1.2
					c1.3-2-0.4-3.2-0.4-3.2l-3-1.6C223.2,4.3,224.5,5.2,224.5,5.2z"/>
			</g>
		</g>
		<g>
			<g>
				<path class="st3" d="M231.3,18.2c-0.6,0.3-2.8,0.3-2.8,0.3l0,0l0,0v0l0,0c0,0,0.8-2.1,1.3-2.5c0.5-0.4,1.2-0.4,2.4,0h0l0,0
					c0,0,0,0,0,0v0C232.1,17.2,231.8,17.9,231.3,18.2z"/>
			</g>
			<g>
				<path class="st3" d="M225.2,18.9l1.3-0.9c0,0,0.8-0.6,0.5-1.1c-0.3-0.4-0.8-0.2-0.8-0.2l0,0c-0.1,0.5-0.3,0.9-0.7,1.2
					c-0.8,0.5-1.8,0.3-2.4-0.4c-0.5-0.8-0.3-1.8,0.4-2.4c0,0,0,0,0,0c0.1-0.1,0.2-0.1,0.4-0.2c0.7-0.3,2.4-0.8,3.7,0.8
					c1.5,1.8,0,3.2,0,3.2l-2.8,1.9C224,19.9,225.2,18.9,225.2,18.9z"/>
			</g>
			<g>
				<path class="st3" d="M227,21.5l1.3-0.9c0,0,0.9-0.5,1.2-0.1c0.3,0.5-0.1,0.8-0.1,0.8l0,0c-0.5-0.1-1,0-1.4,0.2
					c-0.8,0.5-1,1.6-0.4,2.4c0.5,0.8,1.6,1,2.4,0.4c0,0,0,0,0,0c0.1-0.1,0.2-0.2,0.3-0.3c0.6-0.6,1.6-2,0.6-3.8
					c-1.1-2.1-3-1.2-3-1.2l-2.8,1.9C225.7,22.3,227,21.5,227,21.5z"/>
			</g>
		</g>
		<g>
			<g>
				<path class="st3" d="M249.3,18.4c0.6,0.2,2.8,0,2.8,0l0,0v0l0,0l0,0c0,0-1-2-1.5-2.3c-0.5-0.4-1.2-0.3-2.4,0.2l0,0l0,0
					c0,0,0,0,0,0l0,0C248.4,17.5,248.7,18.2,249.3,18.4z"/>
			</g>
			<g>
				<path class="st3" d="M255.4,18.5l-1.4-0.8c0,0-0.9-0.5-0.6-1c0.3-0.5,0.7-0.3,0.7-0.3l0,0c0.1,0.5,0.4,0.9,0.8,1.1
					c0.8,0.4,1.8,0.1,2.3-0.7c0.4-0.8,0.1-1.8-0.7-2.3c0,0,0,0,0,0c-0.1-0.1-0.3-0.1-0.4-0.1c-0.8-0.2-2.5-0.5-3.6,1.2
					c-1.3,2,0.3,3.2,0.3,3.2l3,1.6C256.7,19.4,255.4,18.5,255.4,18.5z"/>
			</g>
			<g>
				<path class="st3" d="M253.8,21.3l-1.4-0.8c0,0-0.9-0.5-1.2,0c-0.2,0.5,0.2,0.8,0.2,0.8l0,0c0.4-0.2,0.9-0.1,1.4,0.1
					c0.8,0.4,1.1,1.5,0.7,2.3c-0.4,0.8-1.5,1.1-2.3,0.7c0,0,0,0,0,0c-0.1-0.1-0.2-0.1-0.3-0.2c-0.6-0.5-1.8-1.8-1-3.7
					c0.9-2.2,2.9-1.5,2.9-1.5l3,1.6C255.3,22,253.8,21.3,253.8,21.3z"/>
			</g>
		</g>
	</g>
</g>
</svg>
