<?xml version="1.0" encoding="utf-8"?>
<!-- Generator: Adobe Illustrator 19.2.1, SVG Export Plug-In . SVG Version: 6.00 Build 0)  -->
<svg version="1.1" id="Capa_1" xmlns="http://www.w3.org/2000/svg" xmlns:xlink="http://www.w3.org/1999/xlink" x="0px" y="0px"
	 viewBox="0 0 624 414.2" style="enable-background:new 0 0 624 414.2;" xml:space="preserve">
<style type="text/css">
	.st0{fill:none;}
	.st1{fill:#FFFFFF;}
</style>
<g>
	<g>
		<rect class="st0" width="624" height="417"/>
	</g>
</g>
<g>
	<circle class="st1" cx="214.9" cy="314" r="2"/>
	<circle class="st1" cx="301.3" cy="314.1" r="2"/>
	<circle class="st1" cx="402.6" cy="385.5" r="2"/>
	<circle class="st1" cx="536.1" cy="123.1" r="2"/>
	<circle class="st1" cx="201.2" cy="123.1" r="2"/>
	<circle class="st1" cx="283.7" cy="111" r="2"/>
	<circle class="st1" cx="221" cy="317.6" r="1"/>
	<circle class="st1" cx="130.6" cy="234.5" r="1"/>
	<circle class="st1" cx="209.5" cy="332.7" r="1"/>
	<circle class="st1" cx="297.1" cy="329.3" r="1"/>
	<circle class="st1" cx="169.2" cy="88.8" r="1"/>
	<circle class="st1" cx="229" cy="109.9" r="1"/>
	<circle class="st1" cx="209.8" cy="129.3" r="1.1"/>
	<circle class="st1" cx="174.1" cy="301.8" r="1.1"/>
	<circle class="st1" cx="213.2" cy="167.3" r="1"/>
	<circle class="st1" cx="230.6" cy="169.4" r="1"/>
	<circle class="st1" cx="297.1" cy="343.5" r="1"/>
	<circle class="st1" cx="196.6" cy="142.3" r="1"/>
	<circle class="st1" cx="324.8" cy="407.1" r="1"/>
	<circle class="st1" cx="281.7" cy="346.3" r="1"/>
	<circle class="st1" cx="303.3" cy="361.3" r="1"/>
	<circle class="st1" cx="506.7" cy="370.3" r="1"/>
	<circle class="st1" cx="338.9" cy="27.1" r="1"/>
	<circle class="st1" cx="356.3" cy="323.4" r="1"/>
	<circle class="st1" cx="478" cy="199.2" r="1"/>
	<circle class="st1" cx="470.8" cy="187.4" r="1"/>
	<circle class="st1" cx="376.6" cy="374.7" r="1"/>
	<circle class="st1" cx="465.9" cy="209.8" r="1"/>
	<circle class="st1" cx="520.4" cy="280.4" r="1"/>
	<circle class="st1" cx="358.2" cy="98" r="1"/>
	<circle class="st1" cx="464.9" cy="19.7" r="1"/>
	<circle class="st1" cx="489.4" cy="375.6" r="1"/>
	<circle class="st1" cx="331.4" cy="76.6" r="1"/>
	<circle class="st1" cx="493" cy="297.1" r="1"/>
	<circle class="st1" cx="491.4" cy="345.7" r="1"/>
	<circle class="st1" cx="280.1" cy="87.8" r="1"/>
	<circle class="st1" cx="213.1" cy="114.6" r="1"/>
	<circle class="st1" cx="215.3" cy="138.2" r="0.7"/>
	<circle class="st1" cx="164.1" cy="220" r="0.7"/>
	<circle class="st1" cx="236.9" cy="298.5" r="0.7"/>
	<circle class="st1" cx="280.5" cy="282.1" r="0.7"/>
	<circle class="st1" cx="116.7" cy="367.5" r="0.7"/>
	<circle class="st1" cx="233.8" cy="180.8" r="0.7"/>
	<circle class="st1" cx="307" cy="355.2" r="0.7"/>
	<circle class="st1" cx="338.2" cy="109.5" r="0.7"/>
	<circle class="st1" cx="366.8" cy="353.8" r="0.7"/>
	<circle class="st1" cx="378.6" cy="56.5" r="0.7"/>
	<circle class="st1" cx="536.1" cy="341.2" r="0.7"/>
	<circle class="st1" cx="534.1" cy="88.8" r="0.7"/>
	<circle class="st1" cx="367.5" cy="49" r="0.7"/>
	<circle class="st1" cx="538.5" cy="291.1" r="0.7"/>
	<circle class="st1" cx="451.6" cy="26.9" r="0.7"/>
	<circle class="st1" cx="274.8" cy="67.4" r="0.7"/>
	<circle class="st1" cx="170.2" cy="29.7" r="0.7"/>
	<circle class="st1" cx="298.3" cy="34.4" r="0.7"/>
	<circle class="st1" cx="347.9" cy="222.4" r="0.7"/>
	<circle class="st1" cx="340.6" cy="231.5" r="0.7"/>
	<circle class="st1" cx="336.9" cy="150.1" r="0.7"/>
	<circle class="st1" cx="285.1" cy="360.2" r="0.7"/>
	<circle class="st1" cx="254.3" cy="386.3" r="0.7"/>
	<circle class="st1" cx="290" cy="394.3" r="0.7"/>
	<circle class="st1" cx="348.8" cy="395" r="0.6"/>
	<circle class="st1" cx="315.2" cy="380.1" r="0.7"/>
	<circle class="st1" cx="332.1" cy="365.3" r="0.7"/>
	<circle class="st1" cx="364.8" cy="308.3" r="0.7"/>
	<circle class="st1" cx="392.9" cy="344.5" r="0.7"/>
	<circle class="st1" cx="478.7" cy="220.7" r="0.7"/>
	<circle class="st1" cx="391" cy="110.2" r="0.7"/>
	<circle class="st1" cx="383.6" cy="305.4" r="0.7"/>
	<circle class="st1" cx="370.3" cy="265" r="0.7"/>
	<circle class="st1" cx="337.4" cy="64.9" r="0.7"/>
	<circle class="st1" cx="251.3" cy="196.3" r="0.7"/>
	<circle class="st1" cx="230.6" cy="217.5" r="0.7"/>
	<circle class="st1" cx="229.2" cy="309" r="0.7"/>
	<circle class="st1" cx="209.7" cy="118.8" r="0.7"/>
	<circle class="st1" cx="264.6" cy="178.9" r="0.7"/>
	<circle class="st1" cx="361" cy="30.4" r="0.7"/>
	<circle class="st1" cx="303.3" cy="239.1" r="0.7"/>
	<circle class="st1" cx="258.1" cy="169.8" r="0.7"/>
	<circle class="st1" cx="135.7" cy="194.6" r="0.7"/>
	<circle class="st1" cx="140.7" cy="216.5" r="0.7"/>
	<circle class="st1" cx="121.1" cy="244.8" r="0.7"/>
	<circle class="st1" cx="258.8" cy="176.6" r="0.7"/>
	<circle class="st1" cx="181.9" cy="291.8" r="0.7"/>
	<circle class="st1" cx="306.3" cy="195.6" r="0.7"/>
	<circle class="st1" cx="264.7" cy="207.5" r="0.7"/>
	<circle class="st1" cx="283.9" cy="246.7" r="0.7"/>
	<circle class="st1" cx="294" cy="213" r="0.7"/>
	<circle class="st1" cx="345.6" cy="133" r="0.7"/>
	<circle class="st1" cx="233.8" cy="117.8" r="0.7"/>
	<circle class="st1" cx="101.5" cy="318.5" r="1"/>
	<circle class="st1" cx="104.7" cy="307.2" r="0.7"/>
	<circle class="st1" cx="86.2" cy="96.2" r="0.7"/>
	<circle class="st1" cx="94.7" cy="38.9" r="0.7"/>
	<circle class="st1" cx="134.5" cy="29.7" r="0.7"/>
	<circle class="st1" cx="7.2" cy="358.6" r="0.7"/>
	<circle class="st1" cx="128.2" cy="288.7" r="0.7"/>
	<circle class="st1" cx="117.4" cy="262.5" r="0.7"/>
	<circle class="st1" cx="145.6" cy="327.6" r="0.7"/>
	<circle class="st1" cx="151.1" cy="305.8" r="0.7"/>
	<circle class="st1" cx="121.5" cy="311.3" r="0.7"/>
	<circle class="st1" cx="135.6" cy="280.4" r="0.7"/>
	<circle class="st1" cx="310.5" cy="316.1" r="1"/>
	<circle class="st1" cx="312.2" cy="366.3" r="1"/>
	<circle class="st1" cx="496.4" cy="133.6" r="1"/>
	<circle class="st1" cx="525.1" cy="92.2" r="1"/>
	<circle class="st1" cx="316.9" cy="312.4" r="1.2"/>
	<circle class="st1" cx="522.4" cy="316.1" r="2"/>
	<circle class="st1" cx="531.5" cy="318.1" r="1"/>
	<circle class="st1" cx="538" cy="314.3" r="1.2"/>
	<circle class="st1" cx="290.9" cy="103.9" r="1"/>
	<circle class="st1" cx="200.4" cy="62.3" r="1"/>
	<circle class="st1" cx="207.7" cy="345.4" r="2.2"/>
	<circle class="st1" cx="212.2" cy="70.6" r="2.5"/>
	<circle class="st1" cx="251" cy="80.3" r="2.5"/>
	<circle class="st1" cx="114.5" cy="43.6" r="2.5"/>
	<circle class="st1" cx="149.1" cy="144" r="1.6"/>
	<path class="st1" d="M347.9,279.7c0.8,1.6,0.7,1.5,2.3,2.3c-1.6,0.8-1.5,0.7-2.3,2.3c-0.8-1.6-0.7-1.5-2.3-2.3
		C347.2,281.2,347.2,281.2,347.9,279.7z"/>
	<circle class="st1" cx="110.4" cy="362.3" r="1.1"/>
	<circle class="st1" cx="73.3" cy="89.1" r="1.1"/>
	<circle class="st1" cx="92.2" cy="385.5" r="1"/>
	<circle class="st1" cx="48.3" cy="397.3" r="0.7"/>
	<circle class="st1" cx="79.7" cy="379.7" r="0.7"/>
	<circle class="st1" cx="60.6" cy="119.6" r="0.7"/>
	<circle class="st1" cx="68.8" cy="115.3" r="0.7"/>
	<circle class="st1" cx="86.9" cy="10.2" r="0.7"/>
	<circle class="st1" cx="23.1" cy="89.7" r="0.7"/>
	<circle class="st1" cx="181" cy="19.7" r="0.7"/>
	<circle class="st1" cx="79.9" cy="281.4" r="0.7"/>
	<circle class="st1" cx="123.5" cy="57.9" r="0.7"/>
	<circle class="st1" cx="48.9" cy="99.5" r="0.7"/>
	<circle class="st1" cx="22.4" cy="137" r="0.7"/>
	<circle class="st1" cx="8.7" cy="26" r="0.7"/>
	<circle class="st1" cx="62.4" cy="306.1" r="0.7"/>
	<circle class="st1" cx="26" cy="336.1" r="0.7"/>
	<circle class="st1" cx="34" cy="332.7" r="0.7"/>
	<circle class="st1" cx="23.8" cy="284.3" r="0.7"/>
	<circle class="st1" cx="8.1" cy="207.5" r="0.7"/>
	<circle class="st1" cx="88.8" cy="237.6" r="0.7"/>
	<circle class="st1" cx="95.4" cy="157.1" r="0.7"/>
	<circle class="st1" cx="120.3" cy="402.4" r="0.7"/>
	<circle class="st1" cx="231" cy="121" r="5.4"/>
	<circle class="st1" cx="151.8" cy="369.6" r="5.4"/>
	<circle class="st1" cx="276.9" cy="157" r="3.7"/>
	<circle class="st1" cx="291.7" cy="190.7" r="2.8"/>
	<circle class="st1" cx="163.4" cy="121.9" r="2.9"/>
	<circle class="st1" cx="562" cy="235.8" r="1"/>
	<circle class="st1" cx="600.6" cy="90" r="1"/>
	<circle class="st1" cx="605.4" cy="303" r="1.1"/>
	<circle class="st1" cx="595.4" cy="221.2" r="0.7"/>
	<circle class="st1" cx="548.1" cy="368.7" r="0.7"/>
	<circle class="st1" cx="601.6" cy="30.9" r="0.7"/>
	<circle class="st1" cx="567" cy="195.8" r="0.7"/>
	<circle class="st1" cx="572.1" cy="217.8" r="0.7"/>
	<circle class="st1" cx="552.5" cy="246" r="0.7"/>
	<circle class="st1" cx="613.3" cy="293" r="0.7"/>
	<circle class="st1" cx="532.9" cy="319.7" r="1"/>
	<circle class="st1" cx="536.1" cy="308.4" r="0.7"/>
	<circle class="st1" cx="517.6" cy="97.4" r="0.7"/>
	<circle class="st1" cx="526.1" cy="40.1" r="0.7"/>
	<circle class="st1" cx="565.9" cy="30.9" r="0.7"/>
	<circle class="st1" cx="438.6" cy="359.8" r="0.7"/>
	<circle class="st1" cx="559.6" cy="290" r="0.7"/>
	<circle class="st1" cx="548.8" cy="263.7" r="0.7"/>
	<circle class="st1" cx="577" cy="328.8" r="0.7"/>
	<circle class="st1" cx="582.5" cy="307.1" r="0.7"/>
	<circle class="st1" cx="552.8" cy="312.5" r="0.7"/>
	<circle class="st1" cx="566.9" cy="281.6" r="0.7"/>
	<circle class="st1" cx="545.9" cy="44.8" r="2.5"/>
	<circle class="st1" cx="580.4" cy="145.2" r="1.6"/>
	<circle class="st1" cx="541.7" cy="363.5" r="1.1"/>
	<circle class="st1" cx="504.6" cy="90.3" r="1.1"/>
	<circle class="st1" cx="523.5" cy="386.7" r="1"/>
	<circle class="st1" cx="479.6" cy="398.5" r="0.7"/>
	<circle class="st1" cx="511.1" cy="381" r="0.7"/>
	<circle class="st1" cx="491.9" cy="120.8" r="0.7"/>
	<circle class="st1" cx="500.2" cy="116.5" r="0.7"/>
	<circle class="st1" cx="518.3" cy="11.4" r="0.7"/>
	<circle class="st1" cx="454.5" cy="91" r="0.7"/>
	<circle class="st1" cx="612.3" cy="20.9" r="0.7"/>
	<circle class="st1" cx="511.3" cy="282.6" r="0.7"/>
	<circle class="st1" cx="554.8" cy="59.1" r="0.7"/>
	<circle class="st1" cx="480.3" cy="100.8" r="0.7"/>
	<circle class="st1" cx="453.8" cy="138.2" r="0.7"/>
	<circle class="st1" cx="440.1" cy="27.2" r="0.7"/>
	<circle class="st1" cx="493.8" cy="307.4" r="0.7"/>
	<circle class="st1" cx="457.4" cy="337.3" r="0.7"/>
	<circle class="st1" cx="465.3" cy="333.9" r="0.7"/>
	<circle class="st1" cx="455.2" cy="285.5" r="0.7"/>
	<circle class="st1" cx="439.4" cy="208.8" r="0.7"/>
	<circle class="st1" cx="520.2" cy="238.8" r="0.7"/>
	<circle class="st1" cx="526.7" cy="158.3" r="0.7"/>
	<circle class="st1" cx="551.7" cy="403.6" r="0.7"/>
	<circle class="st1" cx="583.2" cy="370.8" r="5.4"/>
	<circle class="st1" cx="594.7" cy="123.2" r="2.9"/>
	<circle class="st1" cx="405.4" cy="38" r="2.5"/>
	<circle class="st1" cx="474.7" cy="46.3" r="1"/>
	<circle class="st1" cx="492" cy="48.5" r="1"/>
	<circle class="st1" cx="495.3" cy="59.8" r="0.7"/>
</g>
</svg>
