<?xml version="1.0" encoding="utf-8"?>
<!-- Generator: Adobe Illustrator 19.2.1, SVG Export Plug-In . SVG Version: 6.00 Build 0)  -->
<svg version="1.1" id="Capa_1" xmlns="http://www.w3.org/2000/svg" xmlns:xlink="http://www.w3.org/1999/xlink" x="0px" y="0px"
	 viewBox="0 0 394 170" style="enable-background:new 0 0 394 170;" xml:space="preserve">
<style type="text/css">
	.st0{fill:none;}
	.st1{fill:none;stroke:#B176C7;stroke-width:0.9012;stroke-miterlimit:10;}
	.st2{fill:none;stroke:#B176C7;stroke-width:0.4506;stroke-miterlimit:10;}
	.st3{fill:none;stroke:#B176C7;stroke-width:9.011600e-002;stroke-miterlimit:10;}
	.st4{fill:#B176C7;}
	.st5{fill:none;stroke:#B176C7;stroke-width:0.8661;stroke-miterlimit:10;}
	.st6{fill:none;stroke:#B176C7;stroke-width:0.4331;stroke-miterlimit:10;}
	.st7{fill:none;stroke:#B176C7;stroke-width:8.661300e-002;stroke-miterlimit:10;}
</style>
<g>
	<g>
		<rect x="-103.3" y="-119.2" class="st0" width="624" height="417"/>
		
	</g>
</g>
<g>
	<g>
		<path class="st1" d="M378.6,84.5c-0.9-0.6-12.2-18.4-12.2-18.4l-13.2,18"/>
		
			<rect x="365.2" y="30.3" transform="matrix(-1 -1.224647e-016 1.224647e-016 -1 732.3978 98.5941)" class="st1" width="1.9" height="37.9"/>
	</g>
	<g >
		
			<rect x="346" y="84.3" transform="matrix(-1 -1.224647e-016 1.224647e-016 -1 732.738 175.7284)" class="st1" width="40.8" height="7.2"/>
		<polygon class="st1" points="346,95.5 348.4,93.5 350.9,91.5 350.9,91.5 381.8,91.5 384.3,93.5 386.8,95.5 384.3,97.6 381.8,99.6 
			350.9,99.6 350.9,99.6 348.4,97.6 		"/>
		<polygon class="st1" points="346,103.7 348.4,101.6 350.9,99.6 350.9,99.6 381.8,99.6 384.3,101.6 386.8,103.7 384.3,105.7 
			381.8,107.7 350.9,107.7 350.9,107.7 348.4,105.7 		"/>
		<polygon class="st1" points="346,111.8 348.4,109.8 350.9,107.7 350.9,107.7 381.8,107.7 384.3,109.8 386.8,111.8 384.3,113.8 
			381.8,115.9 350.9,115.9 350.9,115.9 348.4,113.8 		"/>
		<polygon class="st1" points="346,119.9 348.4,117.9 350.9,115.9 350.9,115.9 381.8,115.9 384.3,117.9 386.8,119.9 384.3,122 
			381.8,124 350.9,124 350.9,124 348.4,122 		"/>
		<polygon class="st1" points="346,128.1 348.4,126 350.9,124 350.9,124 381.8,124 384.3,126 386.8,128.1 384.3,130.1 381.8,132.1 
			350.9,132.1 350.9,132.1 348.4,130.1 		"/>
		<polygon class="st1" points="346,136.2 348.4,134.2 350.9,132.1 350.9,132.1 381.8,132.1 384.3,134.2 386.8,136.2 384.3,138.2 
			381.8,140.3 350.9,140.3 350.9,140.3 348.4,138.2 		"/>
	</g>
	
		<rect x="365.9" y="139.4" transform="matrix(-1 -1.224647e-016 1.224647e-016 -1 732.8016 282.9089)" class="st2" width="0.9" height="4.1"/>
	<g>
		<g>
			<rect x="367.4" y="155.4" class="st3" width="0.2" height="4.6"/>
			<rect x="367.1" y="155.4" class="st3" width="0.2" height="5.1"/>
			<rect x="366.8" y="155.4" class="st3" width="0.2" height="5.8"/>
			<rect x="366.5" y="155.4" class="st3" width="0.2" height="6.3"/>
			<rect x="366.2" y="155.4" class="st3" width="0.2" height="6.3"/>
			<rect x="365.9" y="155.4" class="st3" width="0.2" height="5.8"/>
			<rect x="365.6" y="155.4" class="st3" width="0.2" height="5.1"/>
			<rect x="365.2" y="155.4" class="st3" width="0.2" height="4.6"/>
			<path class="st3" d="M365.2,155.5h2.3c0-0.6-0.5-1-1.2-1C365.8,154.5,365.2,155,365.2,155.5z"/>
		</g>
		
			<rect x="366.3" y="153.7" transform="matrix(-1 -1.224647e-016 1.224647e-016 -1 732.7978 308.4984)" class="st3" width="0.3" height="1.1"/>
	</g>
	<circle class="st4" cx="366.4" cy="148.7" r="5"/>
</g>
<g>
	<g>
		<path class="st5" d="M39.6,91.8c-0.9-0.5-11.8-17.7-11.8-17.7L15.2,91.4"/>
		
			<rect x="26.8" y="5.9" transform="matrix(-1 -1.224647e-016 1.224647e-016 -1 55.4208 82.0715)" class="st5" width="1.9" height="70.2"/>
	</g>
	<g>
		
			<rect x="8.3" y="91.5" transform="matrix(-1 -1.224647e-016 1.224647e-016 -1 55.7478 189.9866)" class="st5" width="39.2" height="6.9"/>
		<polygon class="st5" points="8.3,102.4 10.6,100.4 13,98.4 13,98.4 42.8,98.4 45.1,100.4 47.5,102.4 45.1,104.3 42.8,106.3 
			13,106.3 13,106.3 10.6,104.3 		"/>
		<polygon class="st5" points="8.3,110.2 10.6,108.2 13,106.3 13,106.3 42.8,106.3 45.1,108.2 47.5,110.2 45.1,112.1 42.8,114.1 
			13,114.1 13,114.1 10.6,112.1 		"/>
		<polygon class="st5" points="8.3,118 10.6,116 13,114.1 13,114.1 42.8,114.1 45.1,116 47.5,118 45.1,119.9 42.8,121.9 13,121.9 
			13,121.9 10.6,119.9 		"/>
		<polygon class="st5" points="8.3,125.8 10.6,123.8 13,121.9 13,121.9 42.8,121.9 45.1,123.8 47.5,125.8 45.1,127.8 42.8,129.7 
			13,129.7 13,129.7 10.6,127.8 		"/>
		<polygon class="st5" points="8.3,133.6 10.6,131.7 13,129.7 13,129.7 42.8,129.7 45.1,131.7 47.5,133.6 45.1,135.6 42.8,137.5 
			13,137.5 13,137.5 10.6,135.6 		"/>
		<polygon class="st5" points="8.3,141.4 10.6,139.5 13,137.5 13,137.5 42.8,137.5 45.1,139.5 47.5,141.4 45.1,143.4 42.8,145.3 
			13,145.3 13,145.3 10.6,143.4 		"/>
	</g>
	
		<rect x="27.5" y="144.5" transform="matrix(-1 -1.224647e-016 1.224647e-016 -1 55.809 293.001)" class="st6" width="0.9" height="4"/>
	<g>
		<g>
			<rect x="28.9" y="159.9" class="st7" width="0.2" height="4.4"/>
			<rect x="28.6" y="159.9" class="st7" width="0.2" height="4.9"/>
			<rect x="28.3" y="159.9" class="st7" width="0.2" height="5.6"/>
			<rect x="28" y="159.9" class="st7" width="0.2" height="6"/>
			<rect x="27.7" y="159.9" class="st7" width="0.2" height="6"/>
			<rect x="27.4" y="159.9" class="st7" width="0.2" height="5.6"/>
			<rect x="27.1" y="159.9" class="st7" width="0.2" height="4.9"/>
			<rect x="26.8" y="159.9" class="st7" width="0.2" height="4.4"/>
			<path class="st7" d="M26.8,160H29c0-0.5-0.5-1-1.1-1C27.3,159,26.8,159.5,26.8,160z"/>
		</g>
		
			<rect x="27.8" y="158.3" transform="matrix(-1 -1.224647e-016 1.224647e-016 -1 55.8052 317.5958)" class="st7" width="0.3" height="1.1"/>
	</g>
	<circle class="st4" cx="27.9" cy="153.5" r="4.8"/>
</g>
</svg>
